grf
version=1
nRows=43
nColumns=19
inDegrees=yes
endheader
time	ground_force_1_vx	ground_force_1_vy	ground_force_1_vz	ground_force_1_px	ground_force_1_py	ground_force_1_pz	ground_moment_1_mx	ground_moment_1_my	ground_moment_1_mz	ground_force_2_vx	ground_force_2_vy	ground_force_2_vz	ground_force_2_px	ground_force_2_py	ground_force_2_pz	ground_moment_2_mx	ground_moment_2_my	ground_moment_2_mz
6.737000	-20.292673	409.096803	-50.043884	0.188316	0.000000	-1.006447	-0.000000	4.824217	0.000000	3.654991	456.208322	57.905096	0.171344	0.000000	-1.442394	-0.000000	-2.490272	-0.000000
6.738000	-20.250257	409.204833	-50.005618	0.189638	0.000000	-1.013757	-0.000000	4.815650	0.000000	3.698532	455.394080	57.717688	0.172762	0.000000	-1.441645	-0.000000	-2.496877	-0.000000
6.739000	-20.210150	409.317764	-49.967284	0.190050	0.000000	-1.013212	-0.000000	4.807284	0.000000	3.739595	454.593652	57.529380	0.172569	0.000000	-1.440332	-0.000000	-2.503028	-0.000000
6.740000	-20.171937	409.435317	-49.928629	0.191085	0.000000	-1.013553	-0.000000	4.799147	0.000000	3.778248	453.807207	57.340083	0.171532	0.000000	-1.440524	-0.000000	-2.508665	-0.000000
6.741000	-20.135250	409.557102	-49.889524	0.189746	0.000000	-1.010983	-0.000000	4.791260	0.000000	3.814547	453.034750	57.149708	0.172892	0.000000	-1.443301	-0.000000	-2.513735	-0.000000
6.742000	-20.099738	409.682600	-49.850006	0.189388	0.000000	-1.010523	-0.000000	4.783630	0.000000	3.848492	452.276195	56.958152	0.172853	0.000000	-1.441575	-0.000000	-2.518212	-0.000000
6.743000	-20.065017	409.811205	-49.810325	0.187949	0.000000	-1.009664	-0.000000	4.776273	0.000000	3.880044	451.531803	56.765315	0.171296	0.000000	-1.444146	-0.000000	-2.522090	-0.000000
6.744000	-20.030690	409.942218	-49.770903	0.185053	0.000000	-1.017791	-0.000000	4.769226	0.000000	3.909166	450.802434	56.571097	0.172299	0.000000	-1.434935	-0.000000	-2.525375	-0.000000
6.745000	-19.996424	410.074722	-49.732274	0.191226	0.000000	-1.013045	-0.000000	4.762564	0.000000	3.935845	450.089176	56.375386	0.172439	0.000000	-1.442244	-0.000000	-2.528076	-0.000000
6.746000	-19.962007	410.207673	-49.695050	0.187829	0.000000	-1.012888	-0.000000	4.756379	0.000000	3.960114	449.392701	56.178094	0.171481	0.000000	-1.439469	-0.000000	-2.530215	-0.000000
6.747000	-19.927361	410.340233	-49.659852	0.190345	0.000000	-1.012485	-0.000000	4.750762	0.000000	3.982041	448.712971	55.979204	0.169717	0.000000	-1.441519	-0.000000	-2.531822	-0.000000
6.748000	-19.892497	410.471793	-49.627168	0.187980	0.000000	-1.011370	-0.000000	4.745769	0.000000	4.001679	448.049230	55.778782	0.171106	0.000000	-1.441153	-0.000000	-2.532939	-0.000000
6.749000	-19.857462	410.601697	-49.597268	0.186871	0.000000	-1.013347	-0.000000	4.741422	0.000000	4.018998	447.400088	55.576959	0.171076	0.000000	-1.441279	-0.000000	-2.533618	-0.000000
6.750000	-19.822318	410.729246	-49.570242	0.186506	0.000000	-1.011874	-0.000000	4.737719	0.000000	4.033891	446.763645	55.373942	0.172376	0.000000	-1.441420	-0.000000	-2.533921	-0.000000
6.751000	-19.787134	410.854035	-49.546077	0.186584	0.000000	-1.013644	-0.000000	4.734647	0.000000	4.046219	446.137492	55.170009	0.171474	0.000000	-1.443242	-0.000000	-2.533922	-0.000000
6.752000	-19.751991	410.976019	-49.524664	0.188345	0.000000	-1.015677	-0.000000	4.732190	0.000000	4.055859	445.518739	54.965509	0.171131	0.000000	-1.443332	-0.000000	-2.533701	-0.000000
6.753000	-19.717028	411.095127	-49.505864	0.186516	0.000000	-1.012327	-0.000000	4.730302	0.000000	4.062718	444.904200	54.760789	0.170012	0.000000	-1.442159	-0.000000	-2.533336	-0.000000
6.754000	-19.682441	411.211120	-49.489646	0.186664	0.000000	-1.013713	-0.000000	4.728886	0.000000	4.066769	444.290438	54.556085	0.170420	0.000000	-1.441495	-0.000000	-2.532904	-0.000000
6.755000	-19.648441	411.323750	-49.476138	0.185287	0.000000	-1.012972	-0.000000	4.727816	0.000000	4.068094	443.673877	54.351496	0.170333	0.000000	-1.440558	-0.000000	-2.532465	-0.000000
6.756000	-19.615241	411.432575	-49.465558	0.186381	0.000000	-1.014187	-0.000000	4.726964	0.000000	4.066866	443.051337	54.147071	0.170849	0.000000	-1.444511	-0.000000	-2.532064	-0.000000
6.757000	-19.583101	411.536704	-49.458087	0.184582	0.000000	-1.007013	-0.000000	4.726206	0.000000	4.063307	442.420578	53.942904	0.170039	0.000000	-1.440885	-0.000000	-2.531729	-0.000000
6.758000	-19.552322	411.635297	-49.453762	0.185230	0.000000	-1.017084	-0.000000	4.725427	0.000000	4.057650	441.780216	53.739163	0.172116	0.000000	-1.449237	-0.000000	-2.531484	-0.000000
6.759000	-19.523172	411.728292	-49.452459	0.185344	0.000000	-1.014287	-0.000000	4.724532	0.000000	4.050093	441.129488	53.536093	0.170554	0.000000	-1.444104	-0.000000	-2.531349	-0.000000
6.760000	-19.495812	411.816439	-49.454011	0.185519	0.000000	-1.014982	-0.000000	4.723461	0.000000	4.040790	440.468478	53.333980	0.168934	0.000000	-1.441202	-0.000000	-2.531319	-0.000000
6.761000	-19.470339	411.901091	-49.458332	0.182740	0.000000	-1.006219	-0.000000	4.722167	0.000000	4.029891	439.798379	53.133123	0.171865	0.000000	-1.443524	-0.000000	-2.531375	-0.000000
6.762000	-19.446878	411.984360	-49.465402	0.183670	0.000000	-1.015359	0.000000	4.720610	0.000000	4.017562	439.121395	52.933864	0.169347	0.000000	-1.441363	-0.000000	-2.531498	-0.000000
6.763000	-19.425642	412.069107	-49.475209	0.185339	0.000000	-1.013521	0.000000	4.718773	0.000000	4.003939	438.440478	52.736620	0.169705	0.000000	-1.441547	-0.000000	-2.531677	-0.000000
6.764000	-19.406941	412.158255	-49.487755	0.184202	0.000000	-1.013725	0.000000	4.716647	0.000000	3.989097	437.758964	52.541848	0.171554	0.000000	-1.442970	-0.000000	-2.531911	-0.000000
6.765000	-19.391166	412.254087	-49.503058	0.184100	0.000000	-1.015411	0.000000	4.714217	0.000000	3.973055	437.080271	52.349990	0.169884	0.000000	-1.439900	-0.000000	-2.532198	-0.000000
6.766000	-19.378755	412.358319	-49.521096	0.184072	0.000000	-1.014365	0.000000	4.711453	0.000000	3.955843	436.407680	52.161414	0.170043	0.000000	-1.440102	-0.000000	-2.532524	-0.000000
6.767000	-19.370173	412.472405	-49.541740	0.185544	0.000000	-1.016970	0.000000	4.708300	0.000000	3.937534	435.744047	51.976392	0.166993	0.000000	-1.439607	-0.000000	-2.532870	-0.000000
6.768000	-19.365833	412.597049	-49.564723	0.181422	0.000000	-1.017085	0.000000	4.704709	0.000000	3.918235	435.091497	51.795090	0.169145	0.000000	-1.439491	-0.000000	-2.533238	-0.000000
6.769000	-19.366038	412.731381	-49.589657	0.182823	0.000000	-1.016863	0.000000	4.700670	0.000000	3.898052	434.451330	51.617490	0.169953	0.000000	-1.442778	-0.000000	-2.533640	-0.000000
6.770000	-19.370976	412.872947	-49.616105	0.183111	0.000000	-1.015009	0.000000	4.696235	0.000000	3.877026	433.824276	51.443321	0.168857	0.000000	-1.439302	-0.000000	-2.534064	-0.000000
6.771000	-19.380694	413.018355	-49.643577	0.186181	0.000000	-1.019867	0.000000	4.691511	0.000000	3.855118	433.210765	51.272136	0.170328	0.000000	-1.439209	-0.000000	-2.534465	-0.000000
6.772000	-19.395069	413.163613	-49.671524	0.183234	0.000000	-1.012526	0.000000	4.686647	0.000000	3.832288	432.610787	51.103471	0.168677	0.000000	-1.442454	-0.000000	-2.534778	-0.000000
6.773000	-19.413879	413.304283	-49.699431	0.182664	0.000000	-1.011367	0.000000	4.681805	0.000000	3.808562	432.023657	50.936940	0.168041	0.000000	-1.442667	-0.000000	-2.534934	-0.000000
6.774000	-19.436839	413.436072	-49.726898	0.184983	0.000000	-1.019021	0.000000	4.677152	0.000000	3.783950	431.448064	50.772263	0.168801	0.000000	-1.438920	-0.000000	-2.534864	-0.000000
6.775000	-19.463547	413.555474	-49.753622	0.181819	0.000000	-1.014888	0.000000	4.672858	0.000000	3.758362	430.882117	50.609249	0.168685	0.000000	-1.441067	-0.000000	-2.534503	-0.000000
6.776000	-19.493410	413.659910	-49.779339	0.183559	0.000000	-1.013553	0.000000	4.669086	0.000000	3.731611	430.323256	50.447742	0.168079	0.000000	-1.441487	-0.000000	-2.533783	-0.000000
6.777000	-19.525648	413.747566	-49.803765	0.181323	0.000000	-1.014636	0.000000	4.665993	0.000000	3.703451	429.768150	50.287618	0.170899	0.000000	-1.442682	-0.000000	-2.532643	-0.000000
6.778000	-19.559377	413.817103	-49.826617	0.182148	0.000000	-1.014375	0.000000	4.663725	0.000000	3.673625	429.212732	50.128789	0.167115	0.000000	-1.446238	-0.000000	-2.531033	-0.000000
6.779000	-19.593733	413.867455	-49.847708	0.181053	0.000000	-1.014172	0.000000	4.662397	0.000000	3.641915	428.652883	49.971212	0.174299	0.000000	-1.448989	-0.000000	-2.528907	-0.000000
